:SAMPLES-PER-SECOND 30
:FULLY-SPECIFIED
:DEGREES
113
root  -44.435 41.4386 -1.49832 162.169 -86.0504 -163.998
RightUpLeg  -24.6052 -1.65331 -1.58774
RightLeg  42.2036 -7.99962 -8.03142
RightFoot  -9.25794 -0.0928967 1.52013
RightToes  -1.74624e-010 0 -3.6325e-017
Spine  6.91966 -3.79792 0.979318
Spine1  4.53148 -4.89354 4.22461
HEad  -16.115 11.2756 -4.55307
LeftShoulder1  7.74268 -11.1273 -46.1457
LeftArm  3.66438 21.6937 -31.0337
LeftForeArm  179.489 -57.4957 -165.15
LeftHand  -0.244104 0.0205437 5.32207
RightShoulder  4.55527 7.92926 33.9049
RightArm  19.0249 -39.256 19.4536
RightForeArm  144.775 69.6776 150.454
RightHand  0.0535916 -10.7589 -2.33725
LeftUpLeg  6.71725 12.4524 -1.13534
LeftLeg  13.9871 2.95406 -0.499635
LeftFoot  -6.36315 0.171767 -3.22153
LeftToes  -6.82154e-011 1.37952e-011 -1.79748e-011
114
root  -46.5374 41.7703 -1.50594 164.131 -85.6437 -164.695
RightUpLeg  -23.9027 -5.58335 0.828456
RightLeg  27.3391 -5.63427 -3.52815
RightFoot  -9.62294 -0.115111 3.39625
RightToes  -1.74624e-010 0 -3.6325e-017
Spine  5.6005 -4.67117 1.69115
Spine1  3.01245 -5.64392 3.84814
HEad  -13.6208 13.0429 -4.10871
LeftShoulder1  7.43493 -11.135 -44.2171
LeftArm  7.25116 19.815 -30.931
LeftForeArm  -178.817 -55.7566 -166.199
LeftHand  -0.244104 0.0205437 5.32207
RightShoulder  4.29445 8.04584 31.2447
RightArm  19.3958 -44.5135 16.6746
RightForeArm  147.801 67.1624 154.188
RightHand  0.045163 -11.7099 -1.93106
LeftUpLeg  8.51593 16.0182 0.861518
LeftLeg  15.9364 1.41144 -0.601837
LeftFoot  -5.43529 0.406632 -7.4107
LeftToes  -6.82154e-011 1.37952e-011 -1.79748e-011
115
root  -48.5998 41.6968 -1.55392 167.17 -86.2525 -168.021
RightUpLeg  -21.4836 -9.58084 2.42089
RightLeg  15.2552 -4.40216 -0.580971
RightFoot  -11.7374 -0.0627504 4.46361
RightToes  -1.74624e-010 0 -3.6325e-017
Spine  5.59826 -5.51338 1.71129
Spine1  2.01217 -6.37422 3.56066
HEad  -12.2003 13.7929 -3.28826
LeftShoulder1  7.17806 -11.2986 -42.1019
LeftArm  9.06825 17.5532 -31.1107
LeftForeArm  -177.755 -54.0685 -167.102
LeftHand  -0.244104 0.0205437 5.32207
RightShoulder  4.11617 8.46151 28.4074
RightArm  17.7601 -49.6639 16.1478
RightForeArm  149.764 64.938 156.833
RightHand  0.00761844 -12.4799 -1.20711
LeftUpLeg  10.3174 18.7438 2.55831
LeftLeg  22.5467 1.6382 1.28377
LeftFoot  -7.40439 0.323921 -7.99642
LeftToes  -6.82154e-011 1.37952e-011 -1.79748e-011
116
root  -50.6496 41.207 -1.71577 -177.642 -87.4518 175.476
RightUpLeg  -18.1623 -6.0973 0.215986
RightLeg  7.83664 -9.66724 2.41994
RightFoot  -13.223 -0.0119023 5.24809
RightToes  -1.74624e-010 0 -3.6325e-017
Spine  5.08241 -6.08954 -0.145205
Spine1  3.59207 -7.21189 4.38266
HEad  -11.7277 13.5819 -2.93862
LeftShoulder1  7.12267 -11.4913 -41.1755
LeftArm  9.23884 13.9798 -30.6928
LeftForeArm  -179.385 -53.6581 -167.164
LeftHand  -0.244104 0.0205437 5.32207
RightShoulder  3.88931 8.62994 25.9672
RightArm  13.7413 -53.0957 17.7536
RightForeArm  152.191 63.5371 158.395
RightHand  -0.0804603 -13.2206 0.101779
LeftUpLeg  12.3411 16.7717 3.4515
LeftLeg  30.9325 6.46862 4.53636
LeftFoot  -9.77469 0.148925 -6.62367
LeftToes  -6.82154e-011 1.37952e-011 -1.79748e-011
117
root  -52.6443 40.388 -1.88705 -165.17 -88.1783 161.965
RightUpLeg  -17.6053 -5.98145 0.411212
RightLeg  8.04101 -8.99001 2.93321
RightFoot  -9.87662 -0.0946943 3.94225
RightToes  -1.74624e-010 0 -3.6325e-017
Spine  4.39218 -6.21281 -0.31877
Spine1  4.89019 -7.17846 3.70765
HEad  -10.5548 12.2097 -2.39828
LeftShoulder1  6.97737 -11.4795 -40.2952
LeftArm  8.95225 10.0062 -30.8857
LeftForeArm  178.701 -54.8581 -166.45
LeftHand  -0.244104 0.0205437 5.32207
RightShoulder  3.51749 8.07075 24.2319
RightArm  8.33499 -55.8605 20.5433
RightForeArm  155.83 62.6409 159.523
RightHand  -0.161282 -13.6204 1.18021
LeftUpLeg  13.2351 15.1357 4.87426
LeftLeg  40.068 9.70036 9.02019
LeftFoot  -10.7417 0.0908277 -5.30218
LeftToes  -6.82154e-011 1.37952e-011 -1.79748e-011
118
root  -54.4493 39.3846 -1.9324 155.758 -87.9432 -159.676
RightUpLeg  -20.7755 -10.6837 4.50082
RightLeg  16.6921 -2.91037 1.33206
RightFoot  -3.41313 0.106912 -1.59693
RightToes  -1.74624e-010 0 -3.6325e-017
Spine  5.15859 -6.15547 3.02514
Spine1  4.5207 -6.59584 2.09589
HEad  -10.2911 10.8148 -2.10639
LeftShoulder1  6.7727 -10.8862 -40.7784
LeftArm  7.81228 6.20488 -31.2473
LeftForeArm  179.84 -56.861 -165.523
LeftHand  -0.244104 0.0205437 5.32207
RightShoulder  3.18555 6.95644 24.3306
RightArm  3.81461 -55.4815 21.0172
RightForeArm  155.479 62.1184 159.919
RightHand  -0.0707719 -13.7507 -0.075773
LeftUpLeg  12.0817 13.1716 7.60015
LeftLeg  50.1803 10.2637 13.317
LeftFoot  -10.7294 0.0872828 -4.30927
LeftToes  -6.82154e-011 1.37952e-011 -1.79748e-011
